<svg xmlns="http://www.w3.org/2000/svg" style="padding-left: 1em" viewBox="0 0 513.25 118.75"><defs><style>.a{fill:#848992;}</style></defs><title>AWX</title><path class="a" d="M6539.7,7198.69h-34.39l-4.75,18.81h-38l30.4-118.75H6552l30.4,118.75h-38Zm-7.22-27.55-9.12-35.91h-1.71l-9.12,35.91Z" transform="translate(-6462.56 -7098.75)"/><path class="a" d="M6752.3,7098.75l-15.77,118.75h-56.62l-11-71.63-11.21,71.63h-56.62l-15.77-118.75h38l10.07,82.27h1.71l13.11-82.27h41.23l13.11,82.27h1.71l10.07-82.27Z" transform="translate(-6462.56 -7098.75)"/><path class="a" d="M6833.62,7217.5,6816,7189.19l-16.72,28.31H6758l36.48-62.51-35.15-56.24h42.18l16.34,26.22,15.39-26.22h41.23l-35.15,60.42,36.48,58.33Z" transform="translate(-6462.56 -7098.75)"/></svg>